<?xml version="1.0" standalone="no"?>
<!DOCTYPE svg PUBLIC "-//W3C//DTD SVG 20010904//EN"
 "http://www.w3.org/TR/2001/REC-SVG-20010904/DTD/svg10.dtd">
<svg version="1.0" xmlns="http://www.w3.org/2000/svg"
 width="840.000000pt" height="777.000000pt" viewBox="0 0 840.000000 777.000000"
 preserveAspectRatio="xMidYMid meet">

<g transform="translate(0.000000,777.000000) scale(0.100000,-0.100000)"
fill="#000000" stroke="none">
<path d="M4144 7341 c-61 -38 -79 -93 -53 -165 11 -30 -11 -70 -656 -1186
-367 -635 -782 -1354 -922 -1597 -141 -244 -260 -443 -266 -443 -5 0 -41 18
-79 40 -39 22 -73 40 -77 40 -7 0 -41 -53 -41 -64 0 -3 36 -26 80 -52 l80 -46
-19 -31 c-10 -18 -189 -327 -396 -687 -208 -360 -502 -869 -653 -1130 -151
-261 -389 -674 -529 -916 l-254 -442 -42 -5 c-59 -8 -107 -61 -107 -118 0
-120 138 -174 216 -85 l31 36 1852 0 1851 0 0 -70 0 -70 40 0 40 0 0 70 0 70
1855 0 1855 0 16 -26 c56 -84 191 -65 222 32 25 79 -33 164 -112 164 -28 0
-35 7 -72 73 -36 65 -943 1636 -1554 2692 -134 231 -245 427 -247 435 -2 10
21 28 69 55 40 22 74 47 75 55 2 8 -5 26 -16 39 l-18 24 -81 -44 c-44 -24 -82
-42 -85 -39 -2 3 -168 289 -367 635 -200 347 -512 887 -693 1200 -181 314
-406 703 -499 865 -94 162 -197 340 -229 395 l-58 100 16 46 c15 41 15 50 2
84 -27 73 -113 105 -175 66z m330 -662 c140 -243 245 -434 240 -439 -5 -5 -44
-23 -87 -40 -282 -113 -608 -109 -875 11 -66 29 -71 33 -60 53 6 11 52 93 103
181 420 728 382 665 408 665 18 0 63 -71 271 -431z m-736 -553 c177 -76 390
-108 579 -88 162 17 237 39 439 128 6 3 169 -268 377 -628 201 -348 494 -856
651 -1128 157 -272 286 -500 286 -506 0 -5 -34 -29 -75 -53 -41 -23 -75 -45
-75 -47 0 -14 32 -64 41 -64 6 0 41 18 79 40 38 22 72 40 77 40 4 0 145 -237
312 -528 168 -290 428 -741 579 -1002 151 -261 308 -533 349 -604 41 -71 71
-132 66 -136 -4 -4 -43 -33 -85 -64 -246 -182 -423 -493 -461 -808 l-11 -98
-1313 0 -1313 0 0 90 0 90 -40 0 -40 0 0 -90 0 -90 -1315 0 -1315 0 0 44 c0
24 -7 81 -15 127 -50 289 -225 568 -466 748 l-77 57 115 200 c612 1058 1030
1783 1096 1899 44 77 86 146 93 154 11 12 24 8 85 -27 39 -23 77 -42 83 -42 7
0 19 15 28 33 l16 33 -79 45 c-43 24 -79 47 -79 51 0 4 80 145 178 315 221
381 462 798 838 1450 159 277 294 501 299 499 6 -3 47 -21 93 -40z m-2603
-4817 c176 -183 286 -417 311 -661 l7 -68 -501 0 c-483 0 -502 1 -512 19 -8
16 31 90 231 438 133 230 246 424 251 430 15 19 111 -53 213 -158z m6590 -259
c131 -228 240 -418 242 -423 2 -4 1 -16 -2 -27 -6 -20 -16 -20 -511 -20 l-504
0 5 42 c34 250 98 418 225 586 88 117 281 287 300 264 4 -4 114 -194 245 -422z"/>
</g>
</svg>
