<svg xmlns="http://www.w3.org/2000/svg" width="500" height="200" viewBox="0 0 500 200">
  <defs>
    <style>
      .a, .e {
        fill: #fff;
      }

      .b, .c, .d, .h {
        fill: none;
      }

      .b {
        stroke: #f8f8f8;
      }

      .c {
        stroke: #f0f0f0;
      }

      .d {
        stroke: #ddd;
      }

      .e, .f, .h {
        stroke: #404040;
      }

      .e {
        stroke-miterlimit: 10;
      }

      .f {
        fill: #fafafa;
      }

      .f, .h {
        stroke-miterlimit: 19.2;
      }

      .g {
        fill: #404040;
      }
    </style>
  </defs>
  <g>
    <rect class="a" width="500" height="200"/>
    <g>
      <g>
        <line class="b" x1="5" x2="5" y2="200"/>
        <line class="b" x1="10" x2="10" y2="200"/>
        <line class="b" x1="15" x2="15" y2="200"/>
        <line class="b" x1="20" x2="20" y2="200"/>
        <line class="b" x1="30" x2="30" y2="200"/>
        <line class="b" x1="35" x2="35" y2="200"/>
        <line class="b" x1="40" x2="40" y2="200"/>
        <line class="b" x1="45" x2="45" y2="200"/>
        <line class="b" x1="55" x2="55" y2="200"/>
        <line class="b" x1="60" x2="60" y2="200"/>
        <line class="b" x1="65" x2="65" y2="200"/>
        <line class="b" x1="70" x2="70" y2="200"/>
        <line class="b" x1="80" x2="80" y2="200"/>
        <line class="b" x1="85" x2="85" y2="200"/>
        <line class="b" x1="90" x2="90" y2="200"/>
        <line class="b" x1="95" x2="95" y2="200"/>
        <line class="b" x1="105" x2="105" y2="200"/>
        <line class="b" x1="110" x2="110" y2="200"/>
        <line class="b" x1="115" x2="115" y2="200"/>
        <line class="b" x1="120" x2="120" y2="200"/>
        <line class="b" x1="130" x2="130" y2="200"/>
        <line class="b" x1="135" x2="135" y2="200"/>
        <line class="b" x1="140" x2="140" y2="200"/>
        <line class="b" x1="145" x2="145" y2="200"/>
        <line class="b" x1="155" x2="155" y2="200"/>
        <line class="b" x1="160" x2="160" y2="200"/>
        <line class="b" x1="165" x2="165" y2="200"/>
        <line class="b" x1="170" x2="170" y2="200"/>
        <line class="b" x1="180" x2="180" y2="200"/>
        <line class="b" x1="185" x2="185" y2="200"/>
        <line class="b" x1="190" x2="190" y2="200"/>
        <line class="b" x1="195" x2="195" y2="200"/>
        <line class="b" x1="205" x2="205" y2="200"/>
        <line class="b" x1="210" x2="210" y2="200"/>
        <line class="b" x1="215" x2="215" y2="200"/>
        <line class="b" x1="220" x2="220" y2="200"/>
        <line class="b" x1="230" x2="230" y2="200"/>
        <line class="b" x1="235" x2="235" y2="200"/>
        <line class="b" x1="240" x2="240" y2="200"/>
        <line class="b" x1="245" x2="245" y2="200"/>
        <line class="b" x1="255" x2="255" y2="200"/>
        <line class="b" x1="260" x2="260" y2="200"/>
        <line class="b" x1="265" x2="265" y2="200"/>
        <line class="b" x1="270" x2="270" y2="200"/>
        <line class="b" x1="280" x2="280" y2="200"/>
        <line class="b" x1="285" x2="285" y2="200"/>
        <line class="b" x1="290" x2="290" y2="200"/>
        <line class="b" x1="295" x2="295" y2="200"/>
        <line class="b" x1="305" x2="305" y2="200"/>
        <line class="b" x1="310" x2="310" y2="200"/>
        <line class="b" x1="315" x2="315" y2="200"/>
        <line class="b" x1="320" x2="320" y2="200"/>
        <line class="b" x1="330" x2="330" y2="200"/>
        <line class="b" x1="335" x2="335" y2="200"/>
        <line class="b" x1="340" x2="340" y2="200"/>
        <line class="b" x1="345" x2="345" y2="200"/>
        <line class="b" x1="355" x2="355" y2="200"/>
        <line class="b" x1="360" x2="360" y2="200"/>
        <line class="b" x1="365" x2="365" y2="200"/>
        <line class="b" x1="370" x2="370" y2="200"/>
        <line class="b" x1="380" x2="380" y2="200"/>
        <line class="b" x1="385" x2="385" y2="200"/>
        <line class="b" x1="390" x2="390" y2="200"/>
        <line class="b" x1="395" x2="395" y2="200"/>
        <line class="b" x1="405" x2="405" y2="200"/>
        <line class="b" x1="410" x2="410" y2="200"/>
        <line class="b" x1="415" x2="415" y2="200"/>
        <line class="b" x1="420" x2="420" y2="200"/>
        <line class="b" x1="430" x2="430" y2="200"/>
        <line class="b" x1="435" x2="435" y2="200"/>
        <line class="b" x1="440" x2="440" y2="200"/>
        <line class="b" x1="445" x2="445" y2="200"/>
        <line class="b" x1="455" x2="455" y2="200"/>
        <line class="b" x1="460" x2="460" y2="200"/>
        <line class="b" x1="465" x2="465" y2="200"/>
        <line class="b" x1="470" x2="470" y2="200"/>
        <line class="b" x1="480" x2="480" y2="200"/>
        <line class="b" x1="485" x2="485" y2="200"/>
        <line class="b" x1="490" x2="490" y2="200"/>
        <line class="b" x1="495" x2="495" y2="200"/>
        <line class="b" y1="5" x2="500" y2="5"/>
        <line class="b" y1="10" x2="500" y2="10"/>
        <line class="b" y1="15" x2="500" y2="15"/>
        <line class="b" y1="20" x2="500" y2="20"/>
        <line class="b" y1="30" x2="500" y2="30"/>
        <line class="b" y1="35" x2="500" y2="35"/>
        <line class="b" y1="40" x2="500" y2="40"/>
        <line class="b" y1="45" x2="500" y2="45"/>
        <line class="b" y1="55" x2="500" y2="55"/>
        <line class="b" y1="60" x2="500" y2="60"/>
        <line class="b" y1="65" x2="500" y2="65"/>
        <line class="b" y1="70" x2="500" y2="70"/>
        <line class="b" y1="80" x2="500" y2="80"/>
        <line class="b" y1="85" x2="500" y2="85"/>
        <line class="b" y1="90" x2="500" y2="90"/>
        <line class="b" y1="95" x2="500" y2="95"/>
        <line class="b" y1="105" x2="500" y2="105"/>
        <line class="b" y1="110" x2="500" y2="110"/>
        <line class="b" y1="115" x2="500" y2="115"/>
        <line class="b" y1="120" x2="500" y2="120"/>
        <line class="b" y1="130" x2="500" y2="130"/>
        <line class="b" y1="135" x2="500" y2="135"/>
        <line class="b" y1="140" x2="500" y2="140"/>
        <line class="b" y1="145" x2="500" y2="145"/>
        <line class="b" y1="155" x2="500" y2="155"/>
        <line class="b" y1="160" x2="500" y2="160"/>
        <line class="b" y1="165" x2="500" y2="165"/>
        <line class="b" y1="170" x2="500" y2="170"/>
        <line class="b" y1="180" x2="500" y2="180"/>
        <line class="b" y1="185" x2="500" y2="185"/>
        <line class="b" y1="190" x2="500" y2="190"/>
        <line class="b" y1="195" x2="500" y2="195"/>
      </g>
      <g>
        <line class="c" x1="25" x2="25" y2="200"/>
        <line class="c" x1="75" x2="75" y2="200"/>
        <line class="c" x1="125" x2="125" y2="200"/>
        <line class="c" x1="175" x2="175" y2="200"/>
        <line class="c" x1="225" x2="225" y2="200"/>
        <line class="c" x1="275" x2="275" y2="200"/>
        <line class="c" x1="325" x2="325" y2="200"/>
        <line class="c" x1="375" x2="375" y2="200"/>
        <line class="c" x1="425" x2="425" y2="200"/>
        <line class="c" x1="475" x2="475" y2="200"/>
        <line class="c" y1="25" x2="500" y2="25"/>
        <line class="c" y1="75" x2="500" y2="75"/>
        <line class="c" y1="125" x2="500" y2="125"/>
        <line class="c" y1="175" x2="500" y2="175"/>
      </g>
      <g>
        <line class="d" y2="200"/>
        <line class="d" x1="50" x2="50" y2="200"/>
        <line class="d" x1="100" x2="100" y2="200"/>
        <line class="d" x1="150" x2="150" y2="200"/>
        <line class="d" x1="200" x2="200" y2="200"/>
        <line class="d" x1="250" x2="250" y2="200"/>
        <line class="d" x1="300" x2="300" y2="200"/>
        <line class="d" x1="350" x2="350" y2="200"/>
        <line class="d" x1="400" x2="400" y2="200"/>
        <line class="d" x1="450" x2="450" y2="200"/>
        <line class="d" x1="500" x2="500" y2="200"/>
        <line class="d" x2="500"/>
        <line class="d" y1="50" x2="500" y2="50"/>
        <line class="d" y1="100" x2="500" y2="100"/>
        <line class="d" y1="150" x2="500" y2="150"/>
        <line class="d" y1="200" x2="500" y2="200"/>
      </g>
    </g>
    <rect class="d" x="0.5" y="0.5" width="499" height="199"/>
  </g>
  <g>
    <rect class="e" x="341.1199" y="71" width="120" height="60"/>
    <g>
      <polygon class="f" points="50.278 150 200.278 50 250.278 150 50.278 150"/>
      <path class="g" d="M163.6187,115c-.0933-.0938-.14-.167-.14-.2207a1.7293,1.7293,0,0,1,.07-.34.9571.9571,0,0,1,.11-.3l.08-.0595h.28a2.4261,2.4261,0,0,0,2.04-1q.12-.12,3.63-6.11t3.55-6.05c.0664-.12.13-.19.19-.21a1.9092,1.9092,0,0,1,.45-.03h.34a1.0769,1.0769,0,0,1,.12.2l.56,6.46q.56,6.46.6,6.52.1.2211,1.3.2207c.1465,0,.25.0029.31.01a.2749.2749,0,0,1,.14.05.1727.1727,0,0,1,.05.14,2.11,2.11,0,0,1-.06.28,1.2378,1.2378,0,0,1-.11.37c-.0337.0469-.1235.07-.27.07q-.36,0-1.19-.02t-1.33-.02q-1.88,0-2.46.04h-.24a.4706.4706,0,0,1-.13-.17,1.8272,1.8272,0,0,1,.05-.37,1.6347,1.6347,0,0,1,.12-.32l.08-.0595h.4q1.08-.0411,1.28-.34l-.24-3h-4.76l-.68,1.1592a13.8783,13.8783,0,0,0-.74,1.3008.6664.6664,0,0,0-.08.3q0,.4995.92.58c.2529,0,.38.0664.38.1992a.9544.9544,0,0,1-.06.28,1.0739,1.0739,0,0,1-.12.36c-.04.0537-.1265.08-.26.08q-.34,0-1.08-.02t-1.12-.02q-1.42,0-1.82.04Zm9.48-5.2q0-.22-.25-3.12t-.27-2.92l-.54.86q-.32.5391-1.26,2.14l-1.8,3.04,2.06.0195Q173.0989,109.8193,173.0986,109.8Z"/>
    </g>
    <g>
      <g>
        <line class="h" x1="275.2785" y1="50" x2="275.2785" y2="150"/>
        <rect class="g" x="272.0285" y="49.5" width="6.5" height="1"/>
        <rect class="g" x="272.0285" y="149.5" width="6.5" height="1"/>
      </g>
      <g>
        <rect class="a" x="260.2785" y="85" width="30" height="30"/>
        <path class="g" d="M277.5586,106.626a1.7949,1.7949,0,0,1-1.28-.47,1.5864,1.5864,0,0,1-.5-1.21,2.81,2.81,0,0,1,.2-.88,23.6015,23.6015,0,0,0,1.2-3.78,3.9722,3.9722,0,0,0,.06-.76q0-1.18-.9795-1.18a2.4091,2.4091,0,0,0-.5205.04,3.81,3.81,0,0,0-2.36,1.92l-.14.26-.68,2.7q-.64,2.6-.74,2.84a.9037.9037,0,0,1-.88.54.8469.8469,0,0,1-.47-.15.4481.4481,0,0,1-.2305-.39q0-.24,2.94-12a.3609.3609,0,0,0-.12-.32,3.017,3.017,0,0,0-.8-.1h-.4209a.5626.5626,0,0,1-.13-.16,2.0712,2.0712,0,0,1,.0508-.38c.0664-.2534.1523-.38.26-.38q.0189,0,1.45-.11,1.43-.11,1.4492-.11.24,0,.24.18,0,.2205-.72,3.02-.76,2.96-.76,3.02c0,.0269.0459-.0063.14-.1a3.768,3.768,0,0,1,2.6-1.08,2.6946,2.6946,0,0,1,1.7607.54,1.9233,1.9233,0,0,1,.6592,1.58,3.9778,3.9778,0,0,1-.06.76,25.1387,25.1387,0,0,1-1.1,3.54,4.7731,4.7731,0,0,0-.36,1.42.7246.7246,0,0,0,.1.38.3689.3689,0,0,0,.3008.1,1.37,1.37,0,0,0,1.05-.61,4.4792,4.4792,0,0,0,.7695-1.63.51.51,0,0,1,.12-.26.7474.7474,0,0,1,.32-.04c.2529.04.3867.0933.3994.16,0,.0132-.0263.1133-.08.3a4.5627,4.5627,0,0,1-1.02,1.94A2.1031,2.1031,0,0,1,277.5586,106.626Z"/>
      </g>
    </g>
    <g>
      <g>
        <line class="h" x1="50.2785" y1="175" x2="250.2785" y2="175"/>
        <rect class="g" x="49.7785" y="171.75" width="1" height="6.5"/>
        <rect class="g" x="249.7785" y="171.75" width="1" height="6.5"/>
      </g>
      <rect class="a" x="135.2783" y="160" width="30" height="30"/>
      <path class="g" d="M147.0586,168.34q.019,0,1.45-.11t1.4492-.11q.24,0,.24.18t-.68,2.86q-.1612.68-.3506,1.4c-.127.48-.2227.84-.29,1.08l-.08.38q0,.06.12-.06a3.7171,3.7171,0,0,1,1.52-.76,3.145,3.145,0,0,1,1,0,2.7726,2.7726,0,0,1,1.66,1.08,3.477,3.477,0,0,1,.62,2.12,5.9523,5.9523,0,0,1-1.57,4.03,4.5272,4.5272,0,0,1-3.41,1.79,2.4264,2.4264,0,0,1-1.1-.26,2.8987,2.8987,0,0,1-1.5606-2.96,5.4274,5.4274,0,0,1,.12-1.14q0-.02,1-4.1l1.0206-4.08q.0395-.28-.1309-.35a1.63,1.63,0,0,0-.5693-.07h-.2207a.9948.9948,0,0,1-.48-.06q-.12-.1-.02-.48a.7144.7144,0,0,1,.1406-.32A.1732.1732,0,0,1,147.0586,168.34Zm4.9394,7.16q0-1.6-1.22-1.6a1.263,1.263,0,0,0-.13.01c-.0605.0068-.0966.01-.11.01a3.4523,3.4523,0,0,0-1.96,1.44,1.2782,1.2782,0,0,0-.1.12l-.06.08q0,.02-.35,1.43t-.39,1.61a5.9422,5.9422,0,0,0-.12,1.12,1.96,1.96,0,0,0,.4795,1.44,1.0853,1.0853,0,0,0,.8.32,1.9915,1.9915,0,0,0,1.3408-.64,3.5338,3.5338,0,0,0,.81-1.13,12.0589,12.0589,0,0,0,.65-2.09A9.8612,9.8612,0,0,0,151.998,175.5Z"/>
    </g>
    <g>
      <path class="g" d="M364.1994,106.1717q0,.4887.9367.57.3665,0,.3664.224,0,.02-.0407.2646a1.0955,1.0955,0,0,1-.1221.3665.3234.3234,0,0,1-.2647.0815h-.2444q-.2035,0-.6922-.02t-1.3031-.02q-1.4457,0-1.8529.0407H360.82q-.1425-.1425-.1425-.224a.9478.9478,0,0,1,.2647-.7126h.2851a2.4705,2.4705,0,0,0,2.0768-1.0181q.1221-.1221,3.6853-6.21t3.6242-6.1694a.519.519,0,0,1,.4887-.2443h.509a1.0989,1.0989,0,0,1,.1222.2036l.57,6.5765q.57,6.5766.6108,6.6377.1019.224,1.3235.224.509,0,.509.2036a2.15,2.15,0,0,1-.0611.285,1.4242,1.4242,0,0,1-.1018.3665q-.0407.0612-.285.0815h-.2851q-.224,0-.7941-.02t-1.4863-.02q-1.914,0-2.5044.0407h-.2443q-.1223-.1222-.1222-.1833t.0407-.3665a1.6573,1.6573,0,0,1,.1222-.3257l.0814-.0611h.4073q1.0994-.0611,1.3031-.3462l-.2444-3.0541h-4.8459l-.6923,1.1809A6.6492,6.6492,0,0,0,364.1994,106.1717Zm6.2712-3.7872q0-.224-.2443-3.1763t-.2851-2.9727l-.55.8756q-.3258.55-1.2828,2.1786l-1.8324,3.0948,2.0971.02Q370.4707,102.4049,370.4706,102.3845Z"/>
      <path class="g" d="M382.0316,100.6131a.4435.4435,0,0,1,.285-.4072h12.97a.4736.4736,0,0,1,.3054.4072.4619.4619,0,0,1-.285.3869l-6.4748.02h-6.4748A.4035.4035,0,0,1,382.0316,100.6131Zm0,3.95a.4036.4036,0,0,1,.3257-.4073h12.95q.285.2037.285.4073a.4452.4452,0,0,1-.3054.4072h-12.97A.4435.4435,0,0,1,382.0316,104.5632Z"/>
      <g>
        <path class="g" d="M411.2047,82.1458l-.2647.1018a5.8489,5.8489,0,0,1-.8144.2036,9.3712,9.3712,0,0,1-1.181.1425h-.3868v-.9366h.3868a6.6174,6.6174,0,0,0,1.7714-.3054,4.8109,4.8109,0,0,0,1.14-.4887,5.2287,5.2287,0,0,0,.57-.4479q.0407-.061.2443-.0611a.5666.5666,0,0,1,.3461.1222v6.0879l.02,6.1083a.8048.8048,0,0,0,.2443.1832,2.4141,2.4141,0,0,0,.4887.0815q.3869.0407,1.2624.0407h.5293v.9366h-.2239q-.4277-.061-3.2374-.0611-2.7691,0-3.1967.0611H408.66v-.9366h1.3031a4.88,4.88,0,0,0,.509-.02,1.98,1.98,0,0,0,.3258-.0611,1.2249,1.2249,0,0,1,.1629-.0407q.02,0,.1221-.1018t.1222-.0814Z"/>
        <path class="g" d="M409.0872,112.9111a1.1128,1.1128,0,0,1-.8756-.3665,1.3005,1.3005,0,0,1-.3257-.8958,3.3923,3.3923,0,0,1,1.0791-2.5044,3.6845,3.6845,0,0,1,2.6876-1.0588,4.4031,4.4031,0,0,1,3.0949,1.14,3.8877,3.8877,0,0,1,1.2624,2.9524,3.6113,3.6113,0,0,1-.4072,1.6695,5.7628,5.7628,0,0,1-.9774,1.3846q-.57.59-1.6288,1.5067-.7331.6312-2.0361,1.8732l-1.2013,1.14,1.5474.02a24.4563,24.4563,0,0,0,3.4-.1018,5.52,5.52,0,0,0,.4886-1.8121v-.0611h.8145v.0611q-.02.061-.2647,1.8528a15.2077,15.2077,0,0,1-.3054,1.8732v.0611h-7.5539v-.6312a.52.52,0,0,1,.1221-.3054q.1223-.1629.6109-.7126.59-.6516,1.018-1.14.1833-.2035.6923-.7533t.6923-.7534q.1832-.2035.59-.6719t.57-.6923q.1629-.224.4683-.6108a3.4756,3.4756,0,0,0,.4276-.6515q.1223-.2647.3054-.59a2.6318,2.6318,0,0,0,.2647-.6515q.0814-.3258.1425-.6109a3.2358,3.2358,0,0,0,.0611-.6719,3.6305,3.6305,0,0,0-.6922-2.2193,2.3091,2.3091,0,0,0-1.9751-.9366,2.0492,2.0492,0,0,0-1.1809.3461,2.453,2.453,0,0,0-.7126.6719,1.4493,1.4493,0,0,0-.2036.3869q0,.02.1018.02a1.2766,1.2766,0,0,1,.7533.2851,1.0861,1.0861,0,0,1,.3869.9366,1.2,1.2,0,0,1-.3258.8551A1.26,1.26,0,0,1,409.0872,112.9111Z"/>
        <rect class="g" x="404.8317" y="101.9773" width="14.2527" height="1.2217"/>
      </g>
      <path class="g" d="M423.014,94.5049a1.6175,1.6175,0,0,1,.0815-.4683q.0815-.2648.2443-.2647.02,0,1.466-.1018t1.4864-.1222q.2442,0,.2443.1832t-.6923,2.9117q-.1629.6923-.3461,1.4252t-.3054,1.1l-.0815.3869q0,.0611.1222-.0611a3.2255,3.2255,0,0,1,2.0564-.8144,2.5119,2.5119,0,0,1,2.0361.9366,3.6712,3.6712,0,0,1,.7941,2.3618,6.0518,6.0518,0,0,1-1.6085,4.0926,4.6134,4.6134,0,0,1-3.4614,1.8325,2.6645,2.6645,0,0,1-1.8528-.7738,3.3336,3.3336,0,0,1-.8552-2.5044v-.1832a5.9676,5.9676,0,0,1,.1629-1.1809q.1629-.7534.9977-4.0111,1.0181-4.0111,1.0181-4.2555t-.7738-.285h-.5293a.2515.2515,0,0,1-.1426-.0611A.1306.1306,0,0,1,423.014,94.5049Zm5.355,6.5562v-.1222q0-1.5068-1.242-1.5067a1.7492,1.7492,0,0,0-.7127.1629,2.6866,2.6866,0,0,0-.6719.4276q-.3054.2646-.5294.4886a2.6638,2.6638,0,0,0-.3665.448l-.1221.1629-.4276,1.751a11.7221,11.7221,0,0,0-.448,2.484,1.9908,1.9908,0,0,0,.4887,1.466,1.105,1.105,0,0,0,.8144.3258,2.0277,2.0277,0,0,0,1.3642-.6515,3.49,3.49,0,0,0,.8145-1.14,13.5747,13.5747,0,0,0,.6719-2.1379A10.004,10.004,0,0,0,428.369,101.0611Z"/>
      <path class="g" d="M433.052,93.7719q.02,0,1.466-.1018t1.4863-.1222q.2443,0,.2444.1832,0,.2241-.733,3.0745-.7738,3.0135-.7738,3.0745,0,.0408.1426-.1018a3.9379,3.9379,0,0,1,2.6469-1.0994,2.71,2.71,0,0,1,1.7714.55,2.0113,2.0113,0,0,1,.6923,1.6085,10.9066,10.9066,0,0,1-.7738,3.217,13.3742,13.3742,0,0,0-.7737,2.6062.7406.7406,0,0,0,.1018.3869.3751.3751,0,0,0,.3055.1018,1.3715,1.3715,0,0,0,1.0587-.6108,4.7835,4.7835,0,0,0,.7941-1.67.5185.5185,0,0,1,.1222-.2647.7557.7557,0,0,1,.3257-.0407q.4073,0,.4073.1629,0,.02-.0815.3054a4.6574,4.6574,0,0,1-1.0384,1.975,2.0508,2.0508,0,0,1-1.6492.8755h-.1018a1.6465,1.6465,0,0,1-1.3846-.55,1.862,1.862,0,0,1-.4276-1.1606,14.2851,14.2851,0,0,1,.733-2.4026,11.1245,11.1245,0,0,0,.7534-3.1152q0-1.2013-.8959-1.2013h-.1018a3.5128,3.5128,0,0,0-2.932,1.9953l-.1425.2647-.6923,2.7488q-.6515,2.6469-.7533,2.8912a.9192.9192,0,0,1-.8959.55.7054.7054,0,0,1-.4887-.1833.6023.6023,0,0,1-.2239-.3665q0-.285,1.4863-6.19l1.5067-6.0268q0-.2648-.1425-.3258a3.4134,3.4134,0,0,0-.7941-.1018h-.4276q-.1221-.1223-.1221-.1629t.0407-.3869Q432.8892,93.7719,433.052,93.7719Z"/>
    </g>
  </g>
</svg>
