<?xml version="1.0" standalone="no"?>
<!DOCTYPE svg PUBLIC "-//W3C//DTD SVG 20010904//EN"
 "http://www.w3.org/TR/2001/REC-SVG-20010904/DTD/svg10.dtd">
<svg version="1.0" xmlns="http://www.w3.org/2000/svg"
 width="1280.000000pt" height="720.000000pt" viewBox="0 0 1280.000000 720.000000"
 preserveAspectRatio="xMidYMid meet">

<g transform="translate(0.000000,720.000000) scale(0.100000,-0.100000)"
fill="#000000" stroke="none">
<path d="M8518 6437 c-405 -304 -1125 -842 -1600 -1197 -1081 -808 -2457
-1836 -3166 -2366 -298 -223 -542 -407 -542 -410 0 -2 1364 -4 3030 -4 l3030
0 0 2265 c0 1246 -3 2265 -7 2264 -5 0 -340 -249 -745 -552z m712 -1483 c0
-1077 0 -1969 0 -1981 l0 -23 -225 0 -225 0 0 -225 0 -225 -2737 0 -2736 0
424 317 c233 174 555 414 714 533 160 119 504 376 765 571 261 196 727 544
1035 774 1002 748 1558 1163 2274 1699 387 289 706 525 708 523 2 -2 3 -885 3
-1963z m0 -2244 l0 -210 -210 0 -210 0 0 210 0 210 210 0 210 0 0 -210z"/>
<path d="M8244 3401 c-46 -28 -77 -77 -82 -130 -6 -65 25 -102 92 -110 l46 -6
-41 -48 c-23 -26 -64 -62 -93 -78 -49 -29 -50 -30 -16 -23 124 24 234 144 247
269 12 114 -67 178 -153 126z m98 -8 c23 -20 24 -84 3 -144 -20 -56 -42 -79
-76 -79 -55 0 -76 79 -44 158 32 74 78 101 117 65z"/>
<path d="M8544 3388 c-98 -86 -137 -299 -67 -364 48 -45 111 -23 165 57 38 57
58 129 58 212 0 62 -3 71 -29 98 -40 40 -79 39 -127 -3z m106 3 c32 -61 -24
-304 -85 -365 -39 -38 -85 -7 -85 57 0 48 32 188 55 244 32 75 91 108 115 64z"/>
<path d="M8782 3370 c-96 -59 -61 -181 39 -139 57 23 89 108 53 143 -21 21
-52 20 -92 -4z m76 -33 c6 -66 -60 -131 -96 -95 -17 17 -15 43 5 81 20 40 42
57 68 54 15 -1 21 -11 23 -40z"/>
<path d="M4740 5790 c-25 -8 -25 -8 -2 -9 17 -1 22 -6 18 -18 -3 -10 -23 -81
-46 -158 -22 -77 -43 -146 -45 -152 -3 -8 4 -13 15 -13 13 0 22 11 29 36 20
73 106 182 135 171 12 -5 9 -21 -15 -98 -16 -50 -26 -96 -23 -100 9 -15 32
-10 56 14 13 12 16 16 6 8 -10 -8 -20 -12 -23 -9 -3 2 6 38 20 79 31 90 30
133 -4 137 -18 3 -36 -9 -74 -50 -28 -30 -47 -44 -44 -33 26 82 57 190 57 197
0 10 -26 9 -60 -2z"/>
<path d="M5772 5715 c-11 -14 -33 -32 -48 -40 -20 -10 -23 -15 -11 -15 21 0
22 5 -9 -106 -25 -93 -25 -114 0 -114 17 0 69 41 61 48 -3 3 -12 -3 -19 -14
-28 -38 -28 -3 -1 91 24 79 32 95 49 96 17 1 18 2 4 6 -21 5 -22 12 -8 47 12
33 7 33 -18 1z"/>
<path d="M4940 5670 c-23 -7 -24 -8 -3 -9 12 -1 24 -5 27 -10 3 -5 10 -58 16
-117 l9 -109 -35 -33 c-29 -27 -38 -31 -50 -21 -11 9 -18 9 -26 1 -14 -14 -3
-42 17 -42 35 0 212 215 235 286 10 30 10 39 -3 51 -16 17 -37 10 -37 -12 0
-8 7 -18 16 -23 15 -8 14 -15 -14 -63 -18 -30 -40 -65 -51 -78 l-19 -25 -6 70
c-13 139 -20 152 -76 134z"/>
<path d="M5195 5670 c-24 -6 -26 -8 -7 -9 12 0 22 -7 22 -13 0 -7 -19 -76 -43
-153 -35 -117 -46 -141 -67 -152 -23 -11 -19 -13 40 -12 36 1 57 3 48 6 -20 5
-23 38 -8 77 8 22 16 26 47 26 48 0 94 28 122 74 32 52 42 92 29 126 -14 41
-48 48 -94 19 l-37 -23 5 22 c7 24 -2 26 -57 12z m143 -50 c8 -76 -48 -170
-101 -170 -38 0 -42 15 -22 81 34 112 115 171 123 89z"/>
<path d="M5499 5657 c-79 -53 -106 -154 -53 -196 35 -27 73 -27 114 2 48 32
72 69 77 120 5 39 2 49 -20 71 -33 32 -73 34 -118 3z m89 1 c35 -35 -17 -184
-70 -202 -38 -13 -58 6 -58 56 0 99 82 192 128 146z"/>
<path d="M5924 5666 c-76 -33 -122 -158 -75 -205 35 -35 100 -22 146 29 l20
22 -35 -21 c-43 -26 -72 -27 -93 -3 -30 33 -22 59 21 67 53 10 112 45 118 72
13 48 -37 67 -102 39z m71 -6 c18 -30 -32 -82 -92 -94 l-32 -7 10 30 c19 55
95 102 114 71z"/>
<path d="M6095 5670 c-24 -6 -26 -8 -7 -9 26 -1 27 -10 7 -76 -47 -154 -46
-145 -25 -145 13 0 22 9 26 28 17 72 108 190 137 179 13 -5 10 -20 -14 -98
-16 -50 -26 -96 -23 -100 9 -15 32 -10 56 14 13 12 16 16 6 8 -10 -8 -20 -12
-23 -9 -3 2 6 38 20 79 31 90 30 133 -4 137 -18 3 -36 -9 -74 -50 -40 -42 -49
-48 -43 -28 23 86 23 86 -39 70z"/>
<path d="M6348 5659 c-16 -11 -28 -25 -28 -31 0 -6 9 -3 20 7 11 10 23 15 26
12 4 -3 -5 -46 -19 -94 -13 -48 -22 -94 -20 -100 11 -29 55 -13 104 38 39 40
47 45 39 24 -24 -62 -6 -92 36 -60 18 14 18 15 0 9 -15 -6 -17 -3 -12 12 14
45 56 188 56 191 0 2 -8 3 -18 3 -13 0 -22 -12 -31 -42 -15 -51 -76 -144 -104
-159 -35 -19 -37 5 -7 90 21 62 26 89 19 103 -12 23 -27 22 -61 -3z"/>
<path d="M6626 5662 c-24 -27 -20 -64 14 -108 49 -65 36 -115 -25 -100 -19 5
-27 15 -32 38 -5 28 -7 29 -14 13 -19 -49 -12 -60 41 -63 42 -2 54 1 75 22 33
34 32 54 -11 116 -40 58 -41 85 -4 85 19 0 30 -9 42 -35 13 -25 18 -29 18 -15
0 11 3 29 6 40 4 18 -1 20 -44 22 -37 2 -53 -2 -66 -15z"/>
<path d="M6874 5666 c-76 -33 -122 -158 -75 -205 35 -35 100 -22 146 29 l20
22 -35 -21 c-43 -26 -72 -27 -93 -3 -30 33 -22 59 21 67 53 10 112 45 118 72
13 48 -37 67 -102 39z m71 -6 c18 -30 -32 -82 -92 -94 l-32 -7 10 30 c19 55
95 102 114 71z"/>
<path d="M5345 5024 c-69 -36 -115 -105 -115 -174 0 -53 34 -90 82 -90 37 0
101 38 118 70 9 17 6 17 -26 -5 -68 -46 -124 -24 -124 49 0 74 67 156 127 156
26 0 39 -18 24 -33 -16 -16 -13 -47 4 -47 9 0 21 11 27 25 24 53 -49 84 -117
49z"/>
<path d="M4788 4983 c45 -2 119 -2 165 0 45 1 8 3 -83 3 -91 0 -128 -2 -82 -3z"/>
<path d="M9540 4957 c-39 -10 -41 -12 -17 -15 15 -2 27 -7 27 -12 0 -4 -22
-81 -50 -171 -27 -90 -50 -169 -50 -174 0 -16 55 -45 84 -45 32 0 94 30 118
57 27 29 58 105 58 141 0 40 -38 82 -74 82 -13 0 -39 -12 -57 -27 l-32 -28 6
25 c4 14 18 60 31 103 16 51 20 77 13 76 -7 -1 -32 -6 -57 -12z m108 -189 c32
-32 -1 -155 -53 -196 -31 -25 -53 -27 -88 -11 l-25 11 25 77 c16 49 35 86 54
104 31 29 67 35 87 15z"/>
<path d="M4788 4903 c45 -2 119 -2 165 0 45 1 8 3 -83 3 -91 0 -128 -2 -82 -3z"/>
<path d="M6345 2214 c-72 -37 -125 -118 -125 -191 0 -82 69 -95 148 -28 l41
35 -9 -28 c-4 -16 -4 -35 0 -42 10 -16 46 -8 42 9 -2 8 11 61 28 120 17 58 34
114 37 124 4 16 1 18 -18 12 -29 -9 -48 -33 -49 -59 -1 -75 -81 -186 -134
-186 -57 0 -57 81 -1 171 40 63 92 86 125 57 12 -11 12 -10 1 5 -17 21 -47 22
-86 1z"/>
<path d="M6465 1989 c-4 -6 -5 -12 -2 -15 2 -3 7 2 10 11 7 17 1 20 -8 4z"/>
<path d="M4520 1333 c-14 -2 -44 -11 -67 -19 -39 -14 -43 -19 -43 -50 0 -27 4
-34 20 -34 11 0 26 12 34 29 17 33 34 41 80 41 45 0 66 -26 66 -81 0 -52 -16
-81 -94 -169 -52 -59 -116 -154 -116 -172 0 -5 63 -8 139 -8 l139 0 4 50 c3
56 -4 61 -38 25 -21 -22 -31 -25 -99 -25 -74 0 -75 0 -64 21 6 12 46 60 89
108 107 120 125 160 100 225 -16 43 -83 70 -150 59z"/>
<path d="M6750 1333 c-14 -2 -44 -11 -67 -19 -39 -14 -43 -19 -43 -50 0 -27 4
-34 20 -34 11 0 26 12 34 29 17 33 34 41 80 41 45 0 66 -26 66 -81 0 -52 -16
-81 -94 -169 -52 -59 -116 -154 -116 -172 0 -5 63 -8 139 -8 l139 0 4 50 c3
56 -4 61 -38 25 -21 -22 -31 -25 -99 -25 -74 0 -75 0 -64 21 6 12 46 60 89
108 107 120 125 160 100 225 -16 43 -83 70 -150 59z"/>
<path d="M8870 1333 c-14 -2 -44 -11 -67 -19 -39 -14 -43 -19 -43 -50 0 -27 4
-34 20 -34 11 0 26 12 34 29 17 33 34 41 80 41 45 0 66 -26 66 -81 0 -52 -16
-81 -94 -169 -52 -59 -116 -154 -116 -172 0 -5 63 -8 139 -8 l139 0 4 50 c3
56 -4 61 -38 25 -21 -22 -31 -25 -99 -25 -74 0 -75 0 -64 21 6 12 46 60 89
108 107 120 125 160 100 225 -16 43 -83 70 -150 59z"/>
<path d="M8286 1165 c-4 -11 1 -15 19 -15 17 0 26 -7 30 -23 4 -13 -23 -153
-59 -315 -36 -161 -66 -294 -66 -297 0 -10 36 -4 54 10 16 12 22 12 47 0 40
-21 122 -19 167 4 89 46 152 162 152 282 0 97 -35 148 -103 149 -50 0 -87 -20
-131 -72 -20 -23 -36 -35 -36 -27 0 8 18 83 39 167 l39 152 -73 0 c-56 0 -74
-4 -79 -15z m252 -295 c17 -33 8 -133 -19 -205 -27 -73 -75 -115 -132 -115
-56 0 -67 13 -67 75 0 91 52 203 117 255 36 28 83 24 101 -10z"/>
<path d="M7570 955 l0 -135 -130 0 -130 0 0 -30 0 -30 130 0 130 0 0 -135 0
-135 35 0 35 0 0 135 0 135 125 0 125 0 0 30 0 30 -125 0 -125 0 0 135 0 135
-35 0 -35 0 0 -135z"/>
<path d="M4090 945 c-123 -56 -203 -269 -142 -381 22 -42 59 -56 132 -52 60 3
72 8 118 43 47 35 51 41 37 54 -13 13 -19 13 -33 3 -35 -25 -82 -42 -120 -42
-54 0 -74 25 -74 89 2 141 77 261 165 261 32 0 37 -4 47 -35 9 -27 17 -35 35
-35 20 0 25 7 33 47 6 26 9 50 6 52 -2 3 -41 6 -87 8 -59 2 -92 -1 -117 -12z"/>
<path d="M6239 940 c-88 -47 -150 -160 -151 -280 -1 -105 31 -150 107 -150 50
0 72 13 128 73 48 51 48 51 42 21 -3 -17 -3 -43 1 -57 12 -51 114 -45 164 8
18 19 21 28 12 37 -9 9 -17 7 -35 -10 -27 -26 -65 -29 -74 -6 -5 13 41 237 73
362 5 17 2 22 -12 22 -11 0 -27 -7 -38 -15 -16 -12 -22 -12 -47 0 -39 21 -126
18 -170 -5z m152 -47 c27 -71 -25 -230 -97 -292 -43 -39 -97 -43 -115 -9 -18
33 -6 154 21 216 32 74 78 112 136 112 39 0 46 -3 55 -27z"/>
<path d="M5130 890 l0 -30 290 0 290 0 0 30 0 30 -290 0 -290 0 0 -30z"/>
<path d="M5130 690 l0 -30 290 0 290 0 0 30 0 30 -290 0 -290 0 0 -30z"/>
</g>
</svg>
